<svg xmlns="http://www.w3.org/2000/svg" viewBox="0 0 369.34 402.72">
  <title>blob</title>
  <g>
    <path d="M470.94,319.73c-54.6,15.2-90.1,75-113.3,124.3s-34.3,88.1-29.1,128.3,26.7,81.4,62.4,102.1c18.68,10.8,41.22,16,65.66,16,22.42,0,46.43-4.34,70.54-12.66,50.4-17.3,101.1-52,125.4-107.4s22.4-131.4-15.4-184.1c-31.1-43.16-86.29-70.57-135.26-70.56A114.6,114.6,0,0,0,470.94,319.73Z" transform="translate(-313.28 -301.67)" style="fill: #06c"/>
    <path d="M682.13,476.33c-2.48-37.08-14.1-71.06-33.61-98.26-32.94-45.71-91.86-76.4-146.63-76.4h0a128.65,128.65,0,0,0-34.73,4.58c-27.27,7.59-52.69,25.77-75.53,54-16.2,20-31.46,45.48-46.66,77.78-12.92,27.33-21.24,49.66-26.18,70.25-5.53,23-6.88,44.57-4.14,65.8a170.44,170.44,0,0,0,21.57,63.6c12.25,20.95,28.75,37.83,47.7,48.82,20.49,11.85,44.94,17.85,72.68,17.85,24,0,49.29-4.52,75.11-13.43,28.42-9.75,54.95-24.19,76.71-41.75C633.9,628.65,653.06,604,665.36,576,678.48,546.17,684.44,510.78,682.13,476.33Zm-45-90.1c37.8,52.7,39.8,128.7,15.4,184.1s-75,90.1-125.4,107.4C503,686.05,479,690.39,456.6,690.39c-24.44,0-47-5.16-65.66-16-35.7-20.7-57.2-62-62.4-102.1s5.8-79,29.1-128.3,58.7-109.1,113.3-124.3a114.6,114.6,0,0,1,30.94-4.06C550.85,315.66,606,343.07,637.14,386.23Z" transform="translate(-313.28 -301.67)" style="fill: #7fb2e5"/>
  </g>
</svg>
