<?xml version="1.0" encoding="UTF-8"?><svg id="a" xmlns="http://www.w3.org/2000/svg" width="35.28mm" height="35.28mm" viewBox="0 0 100 100"><defs><style>.b{fill:#f2f2f2;}.c{fill:#11181c;}</style></defs><rect class="c" width="100" height="100" rx="14.17" ry="14.17"/><path class="b" d="m73.75,58.72c-1.55-3.65-3.99-6.85-7.1-9.31-3.19-2.48-7.08-3.73-11.66-4.11-1.1-.1-3.66-.3-7.64-.3h-2.59c2.57-3.03,5.56-7.27,6.85-9.11,4.06-5.76,4.72-9.76,4.76-14.29.07-4.43-1.48-12.02-5.04-15.24-.22-.19-.5-.31-.79-.33-1.25-.15-3.66,1.88-5.05,4.85-3.71,7.89-3.81,18.64-3.1,26.99-6.35,6.45-14.29,14.63-14.48,20.44-.13,1.06-.19,2.13-.18,3.2h0c-.21,4.73,2.03,9.24,5.93,11.92,1.28.88,2.7,1.53,4.2,1.93.77.19,1.55.33,2.33.39.19,0,.39.04.58.04h.64l.54-.03h.52l.62-.09h.08v4.84s-3.02-3.14-7.19-3.14c-3.88,0-7.24,2.68-8.11,6.46h0c-.04.15-.07.31-.09.47,0,.08-.03.17-.04.26s-.03.23-.04.37,0,.14,0,.21c0,.18-.02.37-.02.55s0,.37.02.55v.21c0,.07.02.23.04.37.02.13.02.17.04.26.03.16.05.31.09.47h0c1.01,4.49,5.47,7.3,9.95,6.29,3.75-.85,6.44-4.15,6.49-8v-2.65c5.15,4.4,10.26,10.85,15.57,10.85,4.88,0,8.51-3.33,10.92-6.06,1.83-2.13,3.2-4.62,4.03-7.3.99-3.02,1.48-6.17,1.47-9.35.04-4.32-.84-8.6-2.57-12.56Zm-30.75,14.6l-.22.03-.44.07h-.52l-.54.03h-.43c-.16,0-.33-.02-.49-.03-1.95-.16-3.82-.81-5.45-1.89-.53-.36-1.04-.76-1.51-1.2-.47-.43-.9-.9-1.29-1.41-.77-1-1.38-2.11-1.8-3.3-.21-.58-.37-1.18-.48-1.79-.03-.15-.05-.3-.07-.45s-.05-.3-.06-.45l-.04-.44v-1.39c0-.3.03-.6.05-.91.05-.58.13-1.17.24-1.74.44-2.18,1.34-4.25,2.65-6.05,1.12-1.54,2.5-2.86,4.08-3.91l.23-.15c1.05-.55,2.15-.97,3.3-1.26.98-.23,1.98-.36,2.99-.37h0v8.73h-.09l-.43.04-.5.08-.25.05-.23.06-.45.14c-.15.05-.29.11-.44.17-.28.12-.56.25-.82.4-.13.08-.26.16-.37.24-.13.08-.25.17-.37.26l-.34.28c-.11.09-.21.2-.32.3-.21.2-.4.41-.58.64-.09.11-.18.22-.25.34l-.23.34c-.13.24-.28.47-.38.73-.43.92-.65,1.92-.66,2.93-.05,1.64.64,3.22,1.88,4.3.13.1.24.21.37.3s.25.18.37.25l.37.2c.12.07.24.11.37.16l.17.07.17.05.32.1c.21.05.39.08.56.11l.45.04c.11,0,.22,0,.33,0h.26l-.26-.03c-.08,0-.19-.02-.32-.04l-.43-.1c-.16-.05-.33-.1-.52-.17l-.29-.13-.15-.07-.15-.08c-.48-.26-.91-.59-1.28-.99-.99-1.05-1.47-2.48-1.32-3.92.08-.86.34-1.7.77-2.46.46-.82,1.11-1.52,1.89-2.04.1-.07.2-.13.31-.19.11-.06.21-.12.32-.18.22-.11.45-.2.69-.28l.37-.12.37-.08c.06,0,.12-.03.18-.04l.18-.02.37-.04h.43v16.25h-.19Zm-7.9,19.45l.34.03-.34-.03Zm8.06-8.43v1.3c0,3.97-3.22,7.18-7.18,7.18h-.27c-1.2-.1-6.12-.86-6.12-7.17s4.93-7.07,6.13-7.18h.26c3.98,0,7.2,3.69,7.2,3.69l-.03,2.18Zm-8.06-5.83l.34-.03-.34.03Zm10.26-56.44c.85-3.18,3.25-7.97,6.19-7.85,3.05.12,3.12,4.65,1.86,8.61-.66,2.04-1.27,3.98-4.53,8.11-1.14,1.44-2.9,3.27-4.93,5.33,0-4.71.66-11.32,1.41-14.17v-.03Zm-1.05,35.04h.02l.4.07c.13.03.26.07.39.11s.26.07.39.12l.37.15c.25.11.5.23.73.37.13.06.25.13.37.22l.37.23c.47.34.89.74,1.27,1.18.37.44.7.92.96,1.43.27.52.47,1.08.6,1.65l.05.22c.02.07.04.14.04.21l.05.41.02.1v.37l.02.47s0,.03,0,.02v.2l-.02.23-.03.46c-.05.31-.1.62-.15.92-.55,2.5-2.11,4.66-4.31,5.96-.27.17-.55.31-.84.44l-.22.1-.22.08-.27.1v-15.85Zm24.83,22.69c-.77,2.72-1.73,5.5-3.18,7.62-1.5,2.18-3.51,4.45-6.08,4.49-5.35,0-10.43-6.23-15.57-10.47v-6.07c.18-.04.36-.1.54-.16l.56-.21.28-.11.27-.13c.37-.17.72-.36,1.06-.57,1.36-.82,2.53-1.91,3.43-3.21.9-1.28,1.51-2.74,1.81-4.28.05-.37.11-.76.16-1.14,0-.19,0-.38.03-.58v-.53s0-.06,0-.09l-.03-.52v-.4l-.03-.15c-.03-.2-.07-.4-.1-.6-.02-.1-.04-.19-.07-.29l-.07-.28c-.19-.73-.48-1.43-.84-2.09-.36-.64-.8-1.24-1.3-1.77-.49-.52-1.03-.98-1.63-1.38l-.45-.27c-.15-.09-.3-.18-.46-.25-.31-.15-.62-.29-.95-.4l-.48-.16c-.16-.05-.33-.08-.49-.12s-.32-.08-.49-.11l-.49-.06c-.08,0-.16-.03-.25-.03v-8.76h3.05c2.83,0,5.18.2,7,.73,3.35,1.03,6.23,2.57,8.63,5.74,1.74,2.3,3.83,4.98,4.76,8.04s1.97,6.29,1.97,9.69c0,3.08.18,6.16-.6,8.88Z"/></svg>