<?xml version="1.0" encoding="utf-8"?>
<!-- Generator: Adobe Illustrator 24.0.3, SVG Export Plug-In . SVG Version: 6.00 Build 0)  -->
<svg version="1.1" id="Layer_1" xmlns="http://www.w3.org/2000/svg" xmlns:xlink="http://www.w3.org/1999/xlink" x="0px" y="0px"
	 viewBox="0 0 125 230" style="enable-background:new 0 0 125 230;" xml:space="preserve">
<style type="text/css">
	.st0{fill:#1E1E1C;}
	.st1{fill:#585857;}
</style>
<g>
	<g>
		<path class="st0" d="M111.2,0.5H13.8C6.6,0.4,0.6,6,0.5,13.2v203.7c0.1,7.1,6.1,12.8,13.3,12.7h97.4c7.2,0.1,13.2-5.5,13.3-12.7
			V13.2C124.4,6,118.4,0.4,111.2,0.5z M120.5,214.5c-0.1,6.3-5.4,11.3-11.8,11.2H16.2c-6.4,0.1-11.6-4.9-11.8-11.2v-199
			C4.6,9.2,9.9,4.2,16.2,4.3h92.5c6.4-0.1,11.6,4.9,11.8,11.2L120.5,214.5z"/>
		<path class="st0" d="M13.6,230c-7.4,0-13.4-5.9-13.6-13.1V13.2C0.1,5.8,6.3-0.1,13.8,0h97.3c7.5-0.1,13.7,5.8,13.8,13.1v203.7
			c-0.1,7.3-6.2,13.2-13.6,13.2c-0.1,0-0.2,0-0.2,0H13.8C13.7,230,13.7,230,13.6,230z M13.6,1C6.8,1,1.1,6.4,1,13.2v203.7
			c0.1,6.7,5.8,12.2,12.6,12.2c0.1,0,0.1,0,0.2,0h97.4c0.1,0,0.1,0,0.2,0c6.8,0,12.5-5.4,12.6-12.2V13.2C123.9,6.4,118.2,1,111.4,1
			c-0.1,0-0.1,0-0.2,0H13.8C13.8,1,13.7,1,13.6,1z M16,226.2c-6.5,0-11.9-5.2-12.1-11.7v-199C4.1,8.9,9.6,3.7,16.2,3.8h92.5
			c0.1,0,0.1,0,0.2,0c6.5,0,11.9,5.2,12.1,11.7v199c-0.1,6.6-5.7,11.8-12.3,11.7H16.2C16.2,226.2,16.1,226.2,16,226.2z M16,4.8
			c-6,0-11,4.8-11.1,10.7v199c0.1,6,5.1,10.8,11.3,10.7h92.5c6.1,0.1,11.1-4.7,11.3-10.7v-199c-0.1-6-5.2-10.8-11.3-10.7H16.2
			C16.2,4.8,16.1,4.8,16,4.8z"/>
	</g>
	<g>
		<path class="st0" d="M32.2,4.5C62.1,4.5,51.7,16,62.1,16c10.2,0,0-11.6,29.8-11.6"/>
	</g>
	<g>
		<ellipse class="st1" cx="62.1" cy="10.3" rx="3.9" ry="3.9"/>
		<path class="st0" d="M62.1,15.7c-3,0-5.5-2.4-5.5-5.4s2.4-5.4,5.5-5.4c3,0,5.5,2.4,5.5,5.4S65.1,15.7,62.1,15.7z M62.1,7.9
			c-1.3,0-2.4,1.1-2.4,2.4s1.1,2.4,2.4,2.4c1.3,0,2.4-1.1,2.4-2.4S63.4,7.9,62.1,7.9z"/>
	</g>
</g>
</svg>
